<svg width="32" height="32" viewBox="0 0 32 32" fill="none" xmlns="http://www.w3.org/2000/svg">
<path d="M25.9993 3.99951H22.9993V2.99951C22.9993 2.7343 22.8939 2.47994 22.7064 2.2924C22.5188 2.10487 22.2645 1.99951 21.9993 1.99951C21.7341 1.99951 21.4797 2.10487 21.2922 2.2924C21.1046 2.47994 20.9993 2.7343 20.9993 2.99951V3.99951H10.9993V2.99951C10.9993 2.7343 10.8939 2.47994 10.7064 2.2924C10.5188 2.10487 10.2645 1.99951 9.99927 1.99951C9.73405 1.99951 9.4797 2.10487 9.29216 2.2924C9.10462 2.47994 8.99927 2.7343 8.99927 2.99951V3.99951H5.99927C5.469 4.00004 4.96059 4.21092 4.58563 4.58588C4.21067 4.96084 3.99979 5.46924 3.99927 5.99951V25.9995C3.99979 26.5298 4.21067 27.0382 4.58563 27.4131C4.96059 27.7881 5.469 27.999 5.99927 27.9995H25.9993C26.5295 27.999 27.0379 27.7881 27.4129 27.4131C27.7879 27.0382 27.9987 26.5298 27.9993 25.9995V5.99951C27.9987 5.46924 27.7879 4.96084 27.4129 4.58588C27.0379 4.21092 26.5295 4.00004 25.9993 3.99951ZM13 23.4995C12.6062 23.5006 12.216 23.4236 11.8522 23.273C11.4883 23.1224 11.1578 22.9011 10.8799 22.6221C10.6923 22.4346 10.5868 22.1804 10.5866 21.9151C10.5865 21.6499 10.6917 21.3955 10.8791 21.2079C11.0665 21.0202 11.3208 20.9147 11.5861 20.9146C11.8513 20.9144 12.1057 21.0196 12.2933 21.207C12.4097 21.3232 12.5529 21.4089 12.7102 21.4566C12.8676 21.5042 13.0343 21.5123 13.1955 21.4802C13.3568 21.448 13.5076 21.3766 13.6347 21.2723C13.7618 21.1679 13.8611 21.0338 13.924 20.8819C13.9869 20.73 14.0113 20.5649 13.9952 20.4013C13.979 20.2376 13.9228 20.0805 13.8314 19.9438C13.74 19.8071 13.6163 19.695 13.4713 19.6175C13.3263 19.5401 13.1644 19.4995 13 19.4995H12.9994C12.9683 19.4995 12.9371 19.4977 12.9061 19.4948C12.8961 19.4938 12.8864 19.4923 12.8766 19.4911C12.8558 19.4885 12.835 19.4855 12.8143 19.4816C12.8028 19.4794 12.7914 19.477 12.78 19.4744C12.7612 19.4702 12.7424 19.4653 12.7238 19.46C12.7125 19.4567 12.7011 19.4536 12.6899 19.4499C12.6711 19.4438 12.6525 19.4367 12.634 19.4294C12.624 19.4255 12.6138 19.4219 12.6039 19.4176C12.5823 19.4083 12.5612 19.3978 12.54 19.3869C12.5339 19.3837 12.5275 19.381 12.5215 19.3777C12.4951 19.3633 12.4692 19.3475 12.4439 19.3305C12.4353 19.3248 12.4274 19.3183 12.419 19.3124C12.4044 19.3019 12.3895 19.2918 12.3753 19.2804C12.3735 19.2789 12.3719 19.2773 12.3701 19.2758C12.355 19.2635 12.3408 19.2502 12.3265 19.2371C12.316 19.2276 12.3051 19.2185 12.2951 19.2086C12.2855 19.199 12.2767 19.1886 12.2675 19.1786C12.1465 19.048 12.0623 18.8877 12.0236 18.7139C12.023 18.7107 12.0219 18.7077 12.0212 18.7045C12.0177 18.6876 12.0156 18.6703 12.013 18.6531C12.0106 18.6376 12.0076 18.6222 12.0059 18.6066C12.0045 18.5937 12.0043 18.5806 12.0034 18.5676C12.002 18.5471 12.0005 18.5266 12.0004 18.5061C12.0003 18.5039 12 18.5017 12 18.4995C12 18.4891 12.0012 18.4791 12.0016 18.4688C12.0022 18.448 12.0028 18.4273 12.0047 18.4066C12.006 18.3927 12.0082 18.379 12.0101 18.3652C12.0126 18.3466 12.015 18.328 12.0186 18.3095C12.0214 18.2947 12.0251 18.2802 12.0286 18.2656C12.0327 18.2485 12.0367 18.2315 12.0418 18.2146C12.0463 18.1995 12.0516 18.1847 12.0568 18.1699C12.0623 18.1541 12.0678 18.1382 12.0741 18.1225C12.0803 18.1072 12.0874 18.0925 12.0944 18.0775C12.1012 18.063 12.1078 18.0483 12.1154 18.034C12.1235 18.0184 12.1327 18.0034 12.1417 17.9883C12.1494 17.9754 12.1569 17.9623 12.1652 17.9496C12.1759 17.9335 12.1874 17.9183 12.1989 17.9029C12.2058 17.8936 12.2118 17.8839 12.2191 17.8748L12.9194 16.9995H11.5C11.2348 16.9995 10.9804 16.8942 10.7929 16.7066C10.6054 16.5191 10.5 16.2647 10.5 15.9995C10.5 15.7343 10.6054 15.4799 10.7929 15.2924C10.9804 15.1049 11.2348 14.9995 11.5 14.9995H15C15.1884 14.9995 15.3729 15.0527 15.5324 15.153C15.6918 15.2533 15.8197 15.3966 15.9013 15.5663C15.9829 15.7361 16.0149 15.9255 15.9936 16.1127C15.9723 16.2998 15.8986 16.4772 15.7809 16.6243L14.6722 18.0101C15.2061 18.3684 15.6107 18.8888 15.8263 19.4945C16.042 20.1003 16.0572 20.7593 15.8698 21.3743C15.6825 21.9894 15.3024 22.528 14.7857 22.9106C14.269 23.2932 13.643 23.4997 13 23.4995ZM21 22.4995C21 22.7647 20.8946 23.0191 20.7071 23.2066C20.5196 23.3942 20.2652 23.4995 20 23.4995C19.7348 23.4995 19.4804 23.3942 19.2929 23.2066C19.1054 23.0191 19 22.7647 19 22.4995V17.9995L18.6 18.2996C18.3878 18.4587 18.1211 18.527 17.8585 18.4895C17.596 18.452 17.3591 18.3117 17.2 18.0995C17.0408 17.8873 16.9725 17.6206 17.01 17.358C17.0476 17.0955 17.1878 16.8586 17.4 16.6995L19.4 15.1995C19.5486 15.0881 19.7253 15.0202 19.9102 15.0036C20.0952 14.9869 20.2811 15.0221 20.4472 15.1051C20.6133 15.1882 20.753 15.3158 20.8506 15.4738C20.9483 15.6318 21 15.8138 21 15.9995V22.4995ZM25.9993 9.99951H5.99927V5.99951H8.99927V6.99951C8.99927 7.26473 9.10462 7.51908 9.29216 7.70662C9.4797 7.89415 9.73405 7.99951 9.99927 7.99951C10.2645 7.99951 10.5188 7.89415 10.7064 7.70662C10.8939 7.51908 10.9993 7.26473 10.9993 6.99951V5.99951H20.9993V6.99951C20.9993 7.26473 21.1046 7.51908 21.2922 7.70662C21.4797 7.89415 21.7341 7.99951 21.9993 7.99951C22.2645 7.99951 22.5188 7.89415 22.7064 7.70662C22.8939 7.51908 22.9993 7.26473 22.9993 6.99951V5.99951H25.9993V9.99951Z" fill="#4285F4"/>
</svg>
