<svg width="16" height="16" viewBox="0 0 16 16" fill="none" xmlns="http://www.w3.org/2000/svg">
<path d="M0 4C0 1.79086 1.79086 0 4 0H12C14.2091 0 16 1.79086 16 4V12C16 14.2091 14.2091 16 12 16H4C1.79086 16 0 14.2091 0 12V4Z" fill="#4F46E5"/>
<path d="M12.2069 4.79279C12.3944 4.98031 12.4997 5.23462 12.4997 5.49979C12.4997 5.76495 12.3944 6.01926 12.2069 6.20679L7.20692 11.2068C7.01939 11.3943 6.76508 11.4996 6.49992 11.4996C6.23475 11.4996 5.98045 11.3943 5.79292 11.2068L3.79292 9.20679C3.61076 9.01818 3.50997 8.76558 3.51224 8.50339C3.51452 8.24119 3.61969 7.99038 3.8051 7.80497C3.99051 7.61956 4.24132 7.51439 4.50352 7.51211C4.76571 7.50983 5.01832 7.61063 5.20692 7.79279L6.49992 9.08579L10.7929 4.79279C10.9804 4.60532 11.2348 4.5 11.4999 4.5C11.7651 4.5 12.0194 4.60532 12.2069 4.79279Z" fill="white"/>
<path d="M4 1H12V-1H4V1ZM15 4V12H17V4H15ZM12 15H4V17H12V15ZM1 12V4H-1V12H1ZM4 15C2.34315 15 1 13.6569 1 12H-1C-1 14.7614 1.23858 17 4 17V15ZM15 12C15 13.6569 13.6569 15 12 15V17C14.7614 17 17 14.7614 17 12H15ZM12 1C13.6569 1 15 2.34315 15 4H17C17 1.23858 14.7614 -1 12 -1V1ZM4 -1C1.23858 -1 -1 1.23858 -1 4H1C1 2.34315 2.34315 1 4 1V-1Z" fill="#4F46E5"/>
</svg>
