<svg width="33" height="33" viewBox="0 0 33 33" fill="none" xmlns="http://www.w3.org/2000/svg">
<path d="M16.8154 17.8213C17.6439 17.8213 18.3154 17.1497 18.3154 16.3213C18.3154 15.4929 17.6439 14.8213 16.8154 14.8213C15.987 14.8213 15.3154 15.4929 15.3154 16.3213C15.3154 17.1497 15.987 17.8213 16.8154 17.8213Z" fill="black"/>
<path d="M16.8154 9.82129C17.6439 9.82129 18.3154 9.14972 18.3154 8.32129C18.3154 7.49286 17.6439 6.82129 16.8154 6.82129C15.987 6.82129 15.3154 7.49286 15.3154 8.32129C15.3154 9.14972 15.987 9.82129 16.8154 9.82129Z" fill="black"/>
<path d="M16.8154 25.8213C17.6439 25.8213 18.3154 25.1497 18.3154 24.3213C18.3154 23.4929 17.6439 22.8213 16.8154 22.8213C15.987 22.8213 15.3154 23.4929 15.3154 24.3213C15.3154 25.1497 15.987 25.8213 16.8154 25.8213Z" fill="black"/>
</svg>
