<svg width="32" height="32" viewBox="0 0 32 32" fill="none" xmlns="http://www.w3.org/2000/svg">
<path d="M26.9995 8.99976H16.3335L12.8647 6.39917C12.5189 6.14089 12.0991 6.00083 11.6675 5.99976H4.99951C4.46924 6.00028 3.96084 6.21116 3.58588 6.58612C3.21092 6.96108 3.00003 7.46948 2.99951 7.99976V24.9998C3.00004 25.53 3.21092 26.0384 3.58588 26.4134C3.96084 26.7884 4.46924 26.9992 4.99951 26.9998H27.1108C27.6115 26.9991 28.0915 26.7998 28.4456 26.4458C28.7996 26.0918 28.9988 25.6118 28.9995 25.1111V10.9998C28.999 10.4695 28.7881 9.96108 28.4131 9.58612C28.0382 9.21116 27.5298 9.00028 26.9995 8.99976Z" fill="black"/>
</svg>
