<svg width="32" height="32" viewBox="0 0 32 32" fill="none" xmlns="http://www.w3.org/2000/svg">
<path d="M27.3453 12.9625L17.3445 3.87054C16.9772 3.53417 16.4971 3.34762 15.9991 3.34766C15.501 3.34769 15.021 3.53431 14.6537 3.87072L4.65455 12.9625C4.44854 13.1501 4.28392 13.3786 4.1712 13.6334C4.05848 13.8882 4.00013 14.1637 3.99989 14.4423V25.9542C3.99415 26.4568 4.17247 26.9442 4.50122 27.3244C4.68851 27.5373 4.91914 27.7077 5.17765 27.8242C5.43617 27.9407 5.71659 28.0006 6.00014 27.9999H11.9955C12.2607 27.9999 12.5151 27.8945 12.7026 27.707C12.8901 27.5194 12.9955 27.2651 12.9955 26.9999V20.999C12.9955 20.7337 13.1009 20.4794 13.2884 20.2918C13.4759 20.1043 13.7303 19.999 13.9955 19.999H17.9955C18.2607 19.999 18.5151 20.1043 18.7026 20.2918C18.8901 20.4794 18.9955 20.7337 18.9955 20.999V26.9999C18.9955 27.2651 19.1009 27.5194 19.2884 27.707C19.4759 27.8945 19.7303 27.9999 19.9955 27.9999H26.0027C26.3312 28.0042 26.6554 27.9243 26.9444 27.7679C27.2634 27.5957 27.5299 27.3405 27.7157 27.0293C27.9015 26.718 27.9997 26.3623 27.9999 25.9999V14.4424C27.9996 14.1638 27.9413 13.8883 27.8286 13.6335C27.7159 13.3787 27.5513 13.1502 27.3453 12.9625Z" fill="black"/>
</svg>
