<svg width="32" height="32" viewBox="0 0 32 32" fill="none" xmlns="http://www.w3.org/2000/svg">
<path d="M16.0003 3C13.4291 3 10.9157 3.76244 8.77784 5.1909C6.64 6.61935 4.97376 8.64968 3.98982 11.0251C3.00588 13.4006 2.74843 16.0144 3.25004 18.5362C3.75165 21.0579 4.98978 23.3743 6.80786 25.1924C8.62594 27.0105 10.9423 28.2486 13.4641 28.7502C15.9858 29.2518 18.5997 28.9944 20.9751 28.0104C23.3506 27.0265 25.3809 25.3603 26.8094 23.2224C28.2378 21.0846 29.0002 18.5712 29.0002 16C28.9963 12.5534 27.6255 9.24905 25.1883 6.81192C22.7512 4.37479 19.4469 3.0039 16.0003 3ZM15.7503 9.00005C16.047 9.00005 16.337 9.08802 16.5837 9.25284C16.8303 9.41766 17.0226 9.65193 17.1361 9.92602C17.2497 10.2001 17.2794 10.5017 17.2215 10.7927C17.1636 11.0837 17.0208 11.3509 16.811 11.5607C16.6012 11.7705 16.3339 11.9133 16.043 11.9712C15.752 12.0291 15.4504 11.9994 15.1763 11.8859C14.9022 11.7723 14.6679 11.5801 14.5031 11.3334C14.3383 11.0867 14.2503 10.7967 14.2503 10.5C14.2503 10.1022 14.4084 9.72069 14.6897 9.43939C14.971 9.15808 15.3525 9.00005 15.7503 9.00005ZM17.0003 23H16.0003C15.735 23 15.4807 22.8946 15.2932 22.7071C15.1056 22.5196 15.0003 22.2652 15.0003 22V16C14.735 16 14.4807 15.8946 14.2931 15.7071C14.1056 15.5196 14.0003 15.2652 14.0003 15C14.0003 14.7348 14.1056 14.4804 14.2931 14.2929C14.4807 14.1054 14.735 14 15.0003 14H16.0003C16.2655 14 16.5198 14.1054 16.7073 14.2929C16.8949 14.4804 17.0002 14.7348 17.0003 15V21C17.2655 21 17.5198 21.1054 17.7074 21.2929C17.8949 21.4804 18.0003 21.7348 18.0003 22C18.0003 22.2652 17.8949 22.5196 17.7074 22.7071C17.5198 22.8946 17.2655 23 17.0003 23Z" fill="#4285F4"/>
</svg>
